FT88-Bold.ufo
<glyph name="numbersign" format="2">
	<advance width="700"/>
	<unicode hex="0023"/>
	<outline>
		<contour>
			<point x="300" y="600" type="line"/>
			<point x="100" y="600" type="line"/>
			<point x="100" y="500" type="line"/>
			<point x="0" y="500" type="line"/>
			<point x="0" y="400" type="line"/>
			<point x="100" y="400" type="line"/>
			<point x="100" y="200" type="line"/>
			<point x="0" y="200" type="line"/>
			<point x="0" y="100" type="line"/>
			<point x="100" y="100" type="line"/>
			<point x="100" y="0" type="line"/>
			<point x="300" y="0" type="line"/>
			<point x="300" y="100" type="line"/>
			<point x="400" y="100" type="line"/>
			<point x="400" y="0" type="line"/>
			<point x="600" y="0" type="line"/>
			<point x="600" y="100" type="line"/>
			<point x="700" y="100" type="line"/>
			<point x="700" y="200" type="line"/>
			<point x="600" y="200" type="line"/>
			<point x="600" y="400" type="line"/>
			<point x="700" y="400" type="line"/>
			<point x="700" y="500" type="line"/>
			<point x="600" y="500" type="line"/>
			<point x="600" y="600" type="line"/>
			<point x="400" y="600" type="line"/>
			<point x="400" y="500" type="line"/>
			<point x="300" y="500" type="line"/>
		</contour>
		<contour>
			<point x="300" y="200" type="line"/>
			<point x="300" y="400" type="line"/>
			<point x="400" y="400" type="line"/>
			<point x="400" y="200" type="line"/>
		</contour>
	</outline>
</glyph>
<glyph name="quotesingle" format="2">
	<advance width="700"/>
	<unicode hex="0027"/>
	<note>
		quotesingle
	</note>
	<outline>
		<contour>
			<point x="300" y="500" type="line"/>
			<point x="200" y="500" type="line"/>
			<point x="200" y="400" type="line"/>
			<point x="400" y="400" type="line"/>
			<point x="400" y="500" type="line"/>
			<point x="500" y="500" type="line"/>
			<point x="500" y="700" type="line"/>
			<point x="300" y="700" type="line"/>
		</contour>
	</outline>
</glyph>
<glyph name="parenleft" format="2">
	<advance width="700"/>
	<unicode hex="0028"/>
	<outline>
		<contour>
			<point x="500" y="700" type="line"/>
			<point x="300" y="700" type="line"/>
			<point x="300" y="600" type="line"/>
			<point x="200" y="600" type="line"/>
			<point x="200" y="100" type="line"/>
			<point x="300" y="100" type="line"/>
			<point x="300" y="0" type="line"/>
			<point x="500" y="0" type="line"/>
			<point x="500" y="100" type="line"/>
			<point x="400" y="100" type="line"/>
			<point x="400" y="600" type="line"/>
			<point x="500" y="600" type="line"/>
		</contour>
	</outline>
</glyph>
<glyph name="comma" format="2">
	<advance width="700"/>
	<unicode hex="002C"/>
	<note>
		comma
	</note>
	<outline>
		<contour>
			<point x="300" y="0" type="line"/>
			<point x="200" y="0" type="line"/>
			<point x="200" y="-100" type="line"/>
			<point x="400" y="-100" type="line"/>
			<point x="400" y="0" type="line"/>
			<point x="500" y="0" type="line"/>
			<point x="500" y="200" type="line"/>
			<point x="300" y="200" type="line"/>
		</contour>
	</outline>
</glyph>
<glyph name="hyphen" format="2">
	<advance width="700"/>
	<unicode hex="002D"/>
	<note>
		hyphen
	</note>
	<outline>
		<contour>
			<point x="201" y="290" type="line"/>
			<point x="200" y="100" type="line"/>
			<point x="400" y="100" type="line"/>
			<point x="401" y="290" type="line"/>
		</contour>
		<contour>
			<point x="500" y="100" type="line"/>
			<point x="501" y="290" type="line"/>
			<point x="401" y="290" type="line"/>
			<point x="400" y="100" type="line"/>
		</contour>
	</outline>
</glyph>
<glyph name="period" format="2">
	<advance width="700"/>
	<unicode hex="002E"/>
	<note>
		period
	</note>
	<outline>
		<contour>
			<point x="200" y="0" type="line"/>
			<point x="400" y="0" type="line"/>
			<point x="400" y="200" type="line"/>
			<point x="328" y="201"/>
			<point x="228" y="200"/>
			<point x="200" y="200" type="curve"/>
		</contour>
	</outline>
</glyph>
<glyph name="slash" format="2">
	<advance width="700"/>
	<unicode hex="002F"/>
	<outline>
		<contour>
			<point x="600" y="700" type="line"/>
			<point x="400" y="700" type="line"/>
			<point x="400" y="500" type="line"/>
			<point x="300" y="500" type="line"/>
			<point x="300" y="300" type="line"/>
			<point x="200" y="300" type="line"/>
			<point x="200" y="100" type="line"/>
			<point x="100" y="100" type="line"/>
			<point x="100" y="-100" type="line"/>
			<point x="300" y="-100" type="line"/>
			<point x="300" y="100" type="line"/>
			<point x="400" y="100" type="line"/>
			<point x="400" y="300" type="line"/>
			<point x="500" y="300" type="line"/>
			<point x="500" y="500" type="line"/>
			<point x="600" y="500" type="line"/>
		</contour>
	</outline>
</glyph>
<glyph name="semicolon" format="2">
	<advance width="700"/>
	<unicode hex="003B"/>
	<note>
		semicolon
	</note>
	<outline>
		<contour>
			<point x="300" y="300" type="line"/>
			<point x="500" y="300" type="line"/>
			<point x="500" y="500" type="line"/>
			<point x="300" y="500" type="line"/>
		</contour>
		<contour>
			<point x="200" y="-200" type="line"/>
			<point x="400" y="-200" type="line"/>
			<point x="400" y="-100" type="line"/>
			<point x="500" y="-100" type="line"/>
			<point x="500" y="100" type="line"/>
			<point x="300" y="100" type="line"/>
			<point x="300" y="-100" type="line"/>
			<point x="200" y="-100" type="line"/>
		</contour>
	</outline>
</glyph>
<glyph name="question" format="2">
	<advance width="700"/>
	<unicode hex="003F"/>
	<note>
		question
	</note>
	<outline>
		<contour>
			<point x="200" y="600" type="line"/>
			<point x="100" y="600" type="line"/>
			<point x="100" y="500" type="line"/>
			<point x="300" y="500" type="line"/>
			<point x="300" y="600" type="line"/>
			<point x="400" y="600" type="line"/>
			<point x="400" y="400" type="line"/>
			<point x="300" y="400" type="line"/>
			<point x="300" y="300" type="line"/>
			<point x="200" y="300" type="line"/>
			<point x="200" y="200" type="line"/>
			<point x="400" y="200" type="line"/>
			<point x="400" y="300" type="line"/>
			<point x="500" y="300" type="line"/>
			<point x="500" y="400" type="line"/>
			<point x="600" y="400" type="line"/>
			<point x="600" y="600" type="line"/>
			<point x="500" y="600" type="line"/>
			<point x="500" y="700" type="line"/>
			<point x="200" y="700" type="line"/>
		</contour>
		<contour>
			<point x="200" y="100" type="line"/>
			<point x="200" y="0" type="line"/>
			<point x="400" y="0" type="line"/>
			<point x="400" y="100" type="line"/>
		</contour>
	</outline>
</glyph>
<glyph name="A" format="2">
	<advance width="700"/>
	<unicode hex="0041"/>
	<anchor x="350" y="0" name="bottom"/>
	<anchor x="650" y="0" name="ogonek"/>
	<anchor x="350" y="700" name="top"/>
	<note>
		A
	</note>
	<outline>
		<contour>
			<point x="400" y="300" type="line"/>
			<point x="300" y="300" type="line"/>
			<point x="300" y="600" type="line"/>
			<point x="400" y="600" type="line"/>
		</contour>
		<contour>
			<point x="100" y="600" type="line"/>
			<point x="100" y="0" type="line"/>
			<point x="300" y="0" type="line"/>
			<point x="300" y="200" type="line"/>
			<point x="400" y="200" type="line"/>
			<point x="400" y="0" type="line"/>
			<point x="600" y="0" type="line"/>
			<point x="600" y="600" type="line"/>
			<point x="500" y="600" type="line"/>
			<point x="500" y="700" type="line"/>
			<point x="200" y="700" type="line"/>
			<point x="200" y="600" type="line"/>
		</contour>
	</outline>
</glyph>
<glyph name="E" format="2">
	<advance width="700"/>
	<unicode hex="0045"/>
	<anchor x="350" y="0" name="bottom"/>
	<anchor x="650" y="0" name="ogonek"/>
	<anchor x="350" y="700" name="top"/>
	<anchor x="0" y="700" name="topleft"/>
	<note>
		E
	</note>
	<outline>
		<contour>
			<point x="300" y="300" type="line"/>
			<point x="500" y="300" type="line"/>
			<point x="500" y="400" type="line"/>
			<point x="300" y="400" type="line"/>
			<point x="300" y="600" type="line"/>
			<point x="600" y="600" type="line"/>
			<point x="600" y="700" type="line"/>
			<point x="100" y="700" type="line"/>
			<point x="100" y="0" type="line"/>
			<point x="600" y="0" type="line"/>
			<point x="600" y="100" type="line"/>
			<point x="300" y="100" type="line"/>
		</contour>
	</outline>
</glyph>
<glyph name="F" format="2">
	<advance width="700"/>
	<unicode hex="0046"/>
	<note>
		F
	</note>
	<outline>
		<contour>
			<point x="300" y="600" type="line"/>
			<point x="600" y="600" type="line"/>
			<point x="600" y="700" type="line"/>
			<point x="100" y="700" type="line"/>
			<point x="100" y="0" type="line"/>
			<point x="300" y="0" type="line"/>
			<point x="300" y="300" type="line"/>
			<point x="500" y="300" type="line"/>
			<point x="500" y="400" type="line"/>
			<point x="300" y="400" type="line"/>
		</contour>
	</outline>
</glyph>
<glyph name="M" format="2">
	<advance width="700"/>
	<unicode hex="004D"/>
	<note>
		M
	</note>
	<outline>
		<contour>
			<point x="200" y="700" type="line"/>
			<point x="100" y="700" type="line"/>
			<point x="100" y="0" type="line"/>
			<point x="300" y="0" type="line"/>
			<point x="300" y="300" type="line"/>
			<point x="400" y="300" type="line"/>
			<point x="400" y="0" type="line"/>
			<point x="600" y="0" type="line"/>
			<point x="600" y="700" type="line"/>
			<point x="500" y="700" type="line"/>
			<point x="500" y="600" type="line"/>
			<point x="400" y="600" type="line"/>
			<point x="400" y="500" type="line"/>
			<point x="300" y="500" type="line"/>
			<point x="300" y="600" type="line"/>
			<point x="200" y="600" type="line"/>
		</contour>
	</outline>
</glyph>
<glyph name="N" format="2">
	<advance width="700"/>
	<unicode hex="004E"/>
	<note>
		N
	</note>
	<outline>
		<contour>
			<point x="200" y="700" type="line"/>
			<point x="100" y="700" type="line"/>
			<point x="100" y="0" type="line"/>
			<point x="300" y="0" type="line"/>
			<point x="300" y="200" type="line"/>
			<point x="400" y="200" type="line"/>
			<point x="400" y="100" type="line"/>
			<point x="500" y="100" type="line"/>
			<point x="500" y="0" type="line"/>
			<point x="600" y="0" type="line"/>
			<point x="600" y="700" type="line"/>
			<point x="400" y="700" type="line"/>
			<point x="400" y="500" type="line"/>
			<point x="300" y="500" type="line"/>
			<point x="300" y="600" type="line"/>
			<point x="200" y="600" type="line"/>
		</contour>
	</outline>
</glyph>
<glyph name="U" format="2">
	<advance width="700"/>
	<unicode hex="0055"/>
	<note>
		U
	</note>
	<outline>
		<contour>
			<point x="100" y="700" type="line"/>
			<point x="100" y="100" type="line"/>
			<point x="300" y="100" type="line"/>
			<point x="300" y="700" type="line"/>
		</contour>
		<contour>
			<point x="400" y="700" type="line"/>
			<point x="400" y="100" type="line"/>
			<point x="600" y="100" type="line"/>
			<point x="600" y="700" type="line"/>
		</contour>
		<contour>
			<point x="200" y="100" type="line"/>
			<point x="200" y="0" type="line"/>
			<point x="500" y="0" type="line"/>
			<point x="500" y="100" type="line"/>
		</contour>
	</outline>
</glyph>
<glyph name="Y" format="2">
	<advance width="700"/>
	<unicode hex="0059"/>
	<anchor x="350" y="0" name="bottom"/>
	<anchor x="350" y="700" name="top"/>
	<anchor x="0" y="700" name="topleft"/>
	<note>
		Y
	</note>
	<outline>
		<contour>
			<point x="100" y="700" type="line"/>
			<point x="100" y="500" type="line"/>
			<point x="300" y="500" type="line"/>
			<point x="300" y="700" type="line"/>
		</contour>
		<contour>
			<point x="200" y="500" type="line"/>
			<point x="200" y="400" type="line"/>
			<point x="400" y="400" type="line"/>
			<point x="400" y="500" type="line"/>
		</contour>
		<contour>
			<point x="300" y="400" type="line"/>
			<point x="300" y="0" type="line"/>
			<point x="500" y="0" type="line"/>
			<point x="500" y="400" type="line"/>
		</contour>
		<contour>
			<point x="500" y="500" type="line"/>
			<point x="500" y="400" type="line"/>
			<point x="600" y="400" type="line"/>
			<point x="600" y="500" type="line"/>
		</contour>
		<contour>
			<point x="600" y="700" type="line"/>
			<point x="600" y="500" type="line"/>
			<point x="700" y="500" type="line"/>
			<point x="700" y="700" type="line"/>
		</contour>
	</outline>
</glyph>
<glyph name="bracketleft" format="2">
	<advance width="700"/>
	<unicode hex="005B"/>
	<outline>
		<contour>
			<point x="500" y="700" type="line"/>
			<point x="200" y="700" type="line"/>
			<point x="200" y="0" type="line"/>
			<point x="500" y="0" type="line"/>
			<point x="500" y="100" type="line"/>
			<point x="400" y="100" type="line"/>
			<point x="400" y="600" type="line"/>
			<point x="500" y="600" type="line"/>
		</contour>
	</outline>
</glyph>
<glyph name="b" format="2">
	<advance width="700"/>
	<unicode hex="0062"/>
	<note>
		b
	</note>
	<outline>
		<contour>
			<point x="500" y="500" type="line"/>
			<point x="300" y="500" type="line"/>
			<point x="300" y="700" type="line"/>
			<point x="100" y="700" type="line"/>
			<point x="100" y="0" type="line"/>
			<point x="500" y="0" type="line"/>
			<point x="500" y="100" type="line"/>
			<point x="600" y="100" type="line"/>
			<point x="600" y="400" type="line"/>
			<point x="500" y="400" type="line"/>
		</contour>
		<contour>
			<point x="300" y="400" type="line"/>
			<point x="400" y="400" type="line"/>
			<point x="400" y="100" type="line"/>
			<point x="300" y="100" type="line"/>
		</contour>
	</outline>
</glyph>
<glyph name="c" format="2">
	<advance width="700"/>
	<unicode hex="0063"/>
	<note>
		c
	</note>
	<outline>
		<contour>
			<point x="300" y="100" type="line"/>
			<point x="300" y="400" type="line"/>
			<point x="400" y="400" type="line"/>
			<point x="400" y="300" type="line"/>
			<point x="600" y="300" type="line"/>
			<point x="600" y="400" type="line"/>
			<point x="500" y="400" type="line"/>
			<point x="500" y="500" type="line"/>
			<point x="200" y="500" type="line"/>
			<point x="200" y="400" type="line"/>
			<point x="100" y="400" type="line"/>
			<point x="100" y="100" type="line"/>
			<point x="200" y="100" type="line"/>
			<point x="200" y="0" type="line"/>
			<point x="500" y="0" type="line"/>
			<point x="500" y="100" type="line"/>
			<point x="600" y="100" type="line"/>
			<point x="600" y="200" type="line"/>
			<point x="400" y="200" type="line"/>
			<point x="400" y="100" type="line"/>
		</contour>
	</outline>
</glyph>
<glyph name="e" format="2">
	<advance width="700"/>
	<unicode hex="0065"/>
	<anchor x="350" y="0" name="bottom"/>
	<anchor x="650" y="0" name="ogonek"/>
	<anchor x="350" y="500" name="top"/>
	<note>
		e
	</note>
	<outline>
		<contour>
			<point x="300" y="200" type="line"/>
			<point x="600" y="200" type="line"/>
			<point x="600" y="400" type="line"/>
			<point x="500" y="400" type="line"/>
			<point x="500" y="500" type="line"/>
			<point x="200" y="500" type="line"/>
			<point x="200" y="400" type="line"/>
			<point x="100" y="400" type="line"/>
			<point x="100" y="100" type="line"/>
			<point x="200" y="100" type="line"/>
			<point x="200" y="0" type="line"/>
			<point x="500" y="0" type="line"/>
			<point x="500" y="100" type="line"/>
			<point x="300" y="100" type="line"/>
		</contour>
		<contour>
			<point x="400" y="300" type="line"/>
			<point x="300" y="300" type="line"/>
			<point x="300" y="400" type="line"/>
			<point x="400" y="400" type="line"/>
		</contour>
	</outline>
</glyph>
<glyph name="g" format="2">
	<advance width="700"/>
	<unicode hex="0067"/>
	<note>
		g
	</note>
	<outline>
		<contour>
			<point x="300" y="400" type="line"/>
			<point x="400" y="400" type="line"/>
			<point x="400" y="200" type="line"/>
			<point x="300" y="200" type="line"/>
		</contour>
		<contour>
			<point x="200" y="400" type="line"/>
			<point x="100" y="400" type="line"/>
			<point x="100" y="200" type="line"/>
			<point x="200" y="200" type="line"/>
			<point x="200" y="100" type="line"/>
			<point x="400" y="100" type="line"/>
			<point x="400" y="-100" type="line"/>
			<point x="300" y="-100" type="line"/>
			<point x="300" y="0" type="line"/>
			<point x="100" y="0" type="line"/>
			<point x="100" y="-100" type="line"/>
			<point x="200" y="-100" type="line"/>
			<point x="200" y="-200" type="line"/>
			<point x="500" y="-200" type="line"/>
			<point x="500" y="-100" type="line"/>
			<point x="600" y="-100" type="line"/>
			<point x="600" y="500" type="line"/>
			<point x="200" y="500" type="line"/>
		</contour>
	</outline>
</glyph>
<glyph name="h" format="2">
	<advance width="700"/>
	<unicode hex="0068"/>
	<note>
		h
	</note>
	<outline>
		<contour>
			<point x="300" y="700" type="line"/>
			<point x="100" y="700" type="line"/>
			<point x="100" y="0" type="line"/>
			<point x="300" y="0" type="line"/>
			<point x="300" y="400" type="line"/>
			<point x="400" y="400" type="line"/>
			<point x="400" y="0" type="line"/>
			<point x="600" y="0" type="line"/>
			<point x="600" y="400" type="line"/>
			<point x="500" y="400" type="line"/>
			<point x="500" y="500" type="line"/>
			<point x="300" y="500" type="line"/>
		</contour>
	</outline>
</glyph>
<glyph name="i" format="2">
	<advance width="700"/>
	<unicode hex="0069"/>
	<anchor x="350" y="0" name="bottom"/>
	<note>
		i
	</note>
	<outline>
		<contour>
			<point x="300" y="600" type="line"/>
			<point x="500" y="600" type="line"/>
			<point x="500" y="700" type="line"/>
			<point x="300" y="700" type="line"/>
		</contour>
		<contour>
			<point x="200" y="100" type="line"/>
			<point x="200" y="0" type="line"/>
			<point x="600" y="0" type="line"/>
			<point x="600" y="100" type="line"/>
			<point x="500" y="100" type="line"/>
			<point x="500" y="500" type="line"/>
			<point x="200" y="500" type="line"/>
			<point x="200" y="400" type="line"/>
			<point x="300" y="400" type="line"/>
			<point x="300" y="100" type="line"/>
		</contour>
	</outline>
</glyph>
<glyph name="l" format="2">
	<advance width="700"/>
	<unicode hex="006C"/>
	<note>
		l
	</note>
	<outline>
		<contour>
			<point x="400" y="700" type="line"/>
			<point x="200" y="700" type="line"/>
			<point x="200" y="0" type="line"/>
			<point x="500" y="0" type="line"/>
			<point x="500" y="100" type="line"/>
			<point x="400" y="100" type="line"/>
		</contour>
	</outline>
</glyph>
<glyph name="m" format="2">
	<advance width="700"/>
	<unicode hex="006D"/>
	<note>
		m
	</note>
	<outline>
		<contour>
			<point x="100" y="0" type="line"/>
			<point x="200" y="0" type="line"/>
			<point x="200" y="300" type="line"/>
			<point x="300" y="300" type="line"/>
			<point x="300" y="0" type="line"/>
			<point x="400" y="0" type="line"/>
			<point x="400" y="300" type="line"/>
			<point x="500" y="300" type="line"/>
			<point x="500" y="0" type="line"/>
			<point x="600" y="0" type="line"/>
			<point x="600" y="400" type="line"/>
			<point x="500" y="400" type="line"/>
			<point x="500" y="500" type="line"/>
			<point x="400" y="500" type="line"/>
			<point x="400" y="400" type="line"/>
			<point x="300" y="400" type="line"/>
			<point x="300" y="500" type="line"/>
			<point x="100" y="500" type="line"/>
		</contour>
	</outline>
</glyph>
<glyph name="n" format="2">
	<advance width="700"/>
	<unicode hex="006E"/>
	<note>
		n
	</note>
	<outline>
		<contour>
			<point x="500" y="500" type="line"/>
			<point x="300" y="500" type="line"/>
			<point x="300" y="400" type="line"/>
			<point x="400" y="400" type="line"/>
			<point x="400" y="0" type="line"/>
			<point x="600" y="0" type="line"/>
			<point x="600" y="400" type="line"/>
			<point x="500" y="400" type="line"/>
		</contour>
		<contour>
			<point x="200" y="500" type="line"/>
			<point x="100" y="500" type="line"/>
			<point x="100" y="0" type="line"/>
			<point x="300" y="0" type="line"/>
			<point x="300" y="400" type="line"/>
			<point x="200" y="400" type="line"/>
		</contour>
	</outline>
</glyph>
<glyph name="o" format="2">
	<advance width="700"/>
	<unicode hex="006F"/>
	<anchor x="350" y="0" name="bottom"/>
	<anchor x="350" y="250" name="center"/>
	<anchor x="650" y="0" name="ogonek"/>
	<anchor x="350" y="500" name="top"/>
	<anchor x="700" y="500" name="topright"/>
	<note>
		o
	</note>
	<outline>
		<contour>
			<point x="300" y="100" type="line"/>
			<point x="300" y="400" type="line"/>
			<point x="400" y="400" type="line"/>
			<point x="400" y="100" type="line"/>
		</contour>
		<contour>
			<point x="500" y="500" type="line"/>
			<point x="200" y="500" type="line"/>
			<point x="200" y="400" type="line"/>
			<point x="100" y="400" type="line"/>
			<point x="100" y="100" type="line"/>
			<point x="200" y="100" type="line"/>
			<point x="200" y="0" type="line"/>
			<point x="500" y="0" type="line"/>
			<point x="500" y="100" type="line"/>
			<point x="600" y="100" type="line"/>
			<point x="600" y="400" type="line"/>
			<point x="500" y="400" type="line"/>
		</contour>
	</outline>
</glyph>
<glyph name="r" format="2">
	<advance width="700"/>
	<unicode hex="0072"/>
	<note>
		r
	</note>
	<outline>
		<contour>
			<point x="300" y="400" type="line"/>
			<point x="400" y="400" type="line"/>
			<point x="400" y="300" type="line"/>
			<point x="600" y="300" type="line"/>
			<point x="600" y="400" type="line"/>
			<point x="500" y="400" type="line"/>
			<point x="500" y="500" type="line"/>
			<point x="300" y="500" type="line"/>
		</contour>
		<contour>
			<point x="200" y="500" type="line"/>
			<point x="100" y="500" type="line"/>
			<point x="100" y="0" type="line"/>
			<point x="300" y="0" type="line"/>
			<point x="300" y="400" type="line"/>
			<point x="200" y="400" type="line"/>
		</contour>
	</outline>
</glyph>
<glyph name="s" format="2">
	<advance width="700"/>
	<unicode hex="0073"/>
	<note>
		s
	</note>
	<outline>
		<contour>
			<point x="0" y="100" type="line"/>
			<point x="0" y="0" type="line"/>
			<point x="500" y="0" type="line"/>
			<point x="500" y="100" type="line"/>
			<point x="600" y="100" type="line"/>
			<point x="600" y="200" type="line"/>
			<point x="500" y="200" type="line"/>
			<point x="500" y="300" type="line"/>
			<point x="300" y="300" type="line"/>
			<point x="300" y="400" type="line"/>
			<point x="500" y="400" type="line"/>
			<point x="500" y="500" type="line"/>
			<point x="100" y="500" type="line"/>
			<point x="100" y="400" type="line"/>
			<point x="0" y="400" type="line"/>
			<point x="0" y="300" type="line"/>
			<point x="100" y="300" type="line"/>
			<point x="100" y="200" type="line"/>
			<point x="300" y="200" type="line"/>
			<point x="300" y="100" type="line"/>
		</contour>
	</outline>
</glyph>
<glyph name="t" format="2">
	<advance width="700"/>
	<unicode hex="0074"/>
	<note>
		t
	</note>
	<outline>
		<contour>
			<point x="300" y="400" type="line"/>
			<point x="500" y="400" type="line"/>
			<point x="500" y="500" type="line"/>
			<point x="300" y="500" type="line"/>
			<point x="300" y="700" type="line"/>
			<point x="100" y="700" type="line"/>
			<point x="100" y="100" type="line"/>
			<point x="200" y="100" type="line"/>
			<point x="200" y="0" type="line"/>
			<point x="500" y="0" type="line"/>
			<point x="500" y="100" type="line"/>
			<point x="300" y="100" type="line"/>
		</contour>
	</outline>
</glyph>
<glyph name="u" format="2">
	<advance width="700"/>
	<unicode hex="0075"/>
	<anchor x="350" y="0" name="bottom"/>
	<anchor x="650" y="0" name="ogonek"/>
	<anchor x="350" y="500" name="top"/>
	<anchor x="700" y="500" name="topright"/>
	<note>
		u
	</note>
	<outline>
		<contour>
			<point x="500" y="0" type="line"/>
			<point x="600" y="0" type="line"/>
			<point x="600" y="500" type="line"/>
			<point x="400" y="500" type="line"/>
			<point x="400" y="100" type="line"/>
			<point x="500" y="100" type="line"/>
		</contour>
		<contour>
			<point x="300" y="500" type="line"/>
			<point x="100" y="500" type="line"/>
			<point x="100" y="100" type="line"/>
			<point x="200" y="100" type="line"/>
			<point x="200" y="0" type="line"/>
			<point x="400" y="0" type="line"/>
			<point x="400" y="100" type="line"/>
			<point x="300" y="100" type="line"/>
		</contour>
	</outline>
</glyph>
<glyph name="v" format="2">
	<advance width="700"/>
	<unicode hex="0076"/>
	<note>
		v
	</note>
	<outline>
		<contour>
			<point x="300" y="200" type="line"/>
			<point x="300" y="500" type="line"/>
			<point x="100" y="500" type="line"/>
			<point x="100" y="300" type="line"/>
			<point x="200" y="300" type="line"/>
			<point x="200" y="100" type="line"/>
			<point x="300" y="100" type="line"/>
			<point x="300" y="0" type="line"/>
			<point x="400" y="0" type="line"/>
			<point x="400" y="100" type="line"/>
			<point x="500" y="100" type="line"/>
			<point x="500" y="300" type="line"/>
			<point x="600" y="300" type="line"/>
			<point x="600" y="500" type="line"/>
			<point x="400" y="500" type="line"/>
			<point x="400" y="200" type="line"/>
		</contour>
	</outline>
</glyph>
<glyph name="w" format="2">
	<advance width="700"/>
	<unicode hex="0077"/>
	<note>
		w
	</note>
	<outline>
		<contour>
			<point x="200" y="200" type="line"/>
			<point x="200" y="500" type="line"/>
			<point x="100" y="500" type="line"/>
			<point x="100" y="100" type="line"/>
			<point x="200" y="100" type="line"/>
			<point x="200" y="0" type="line"/>
			<point x="300" y="0" type="line"/>
			<point x="300" y="100" type="line"/>
			<point x="400" y="100" type="line"/>
			<point x="400" y="0" type="line"/>
			<point x="500" y="0" type="line"/>
			<point x="500" y="100" type="line"/>
			<point x="600" y="100" type="line"/>
			<point x="600" y="500" type="line"/>
			<point x="500" y="500" type="line"/>
			<point x="500" y="200" type="line"/>
			<point x="400" y="200" type="line"/>
			<point x="400" y="500" type="line"/>
			<point x="300" y="500" type="line"/>
			<point x="300" y="200" type="line"/>
		</contour>
	</outline>
</glyph>
<glyph name="x" format="2">
	<advance width="700"/>
	<unicode hex="0078"/>
	<note>
		x
	</note>
	<outline>
		<contour>
			<point x="500" y="200" type="line"/>
			<point x="400" y="200" type="line"/>
			<point x="400" y="300" type="line"/>
			<point x="500" y="300" type="line"/>
			<point x="500" y="400" type="line"/>
			<point x="600" y="400" type="line"/>
			<point x="600" y="500" type="line"/>
			<point x="400" y="500" type="line"/>
			<point x="400" y="400" type="line"/>
			<point x="300" y="400" type="line"/>
			<point x="300" y="500" type="line"/>
			<point x="100" y="500" type="line"/>
			<point x="100" y="400" type="line"/>
			<point x="200" y="400" type="line"/>
			<point x="200" y="300" type="line"/>
			<point x="300" y="300" type="line"/>
			<point x="300" y="200" type="line"/>
			<point x="200" y="200" type="line"/>
			<point x="200" y="100" type="line"/>
			<point x="100" y="100" type="line"/>
			<point x="100" y="0" type="line"/>
			<point x="300" y="0" type="line"/>
			<point x="300" y="100" type="line"/>
			<point x="400" y="100" type="line"/>
			<point x="400" y="0" type="line"/>
			<point x="600" y="0" type="line"/>
			<point x="600" y="100" type="line"/>
			<point x="500" y="100" type="line"/>
		</contour>
	</outline>
</glyph>
<glyph name="bar" format="2">
	<advance width="700"/>
	<unicode hex="007C"/>
	<outline>
		<contour>
			<point x="400" y="700" type="line"/>
			<point x="200" y="700" type="line"/>
			<point x="200" y="-100" type="line"/>
			<point x="400" y="-100" type="line"/>
		</contour>
	</outline>
</glyph>
<glyph name="exclamdown" format="2">
	<advance width="700"/>
	<unicode hex="00A1"/>
	<outline>
		<contour>
			<point x="400" y="500" type="line"/>
			<point x="200" y="500" type="line"/>
			<point x="200" y="0" type="line"/>
			<point x="400" y="0" type="line"/>
		</contour>
		<contour>
			<point x="400" y="700" type="line"/>
			<point x="200" y="700" type="line"/>
			<point x="200" y="600" type="line"/>
			<point x="400" y="600" type="line"/>
		</contour>
	</outline>
</glyph>
<glyph name="periodcentered" format="2">
	<advance width="700"/>
	<unicode hex="00B7"/>
	<outline>
		<contour>
			<point x="400" y="400" type="line"/>
			<point x="200" y="400" type="line"/>
			<point x="200" y="200" type="line"/>
			<point x="400" y="200" type="line"/>
		</contour>
	</outline>
</glyph>
<glyph name="Aacute" format="2">
	<advance width="700"/>
	<unicode hex="00C1"/>
	<anchor x="350" y="0" name="bottom"/>
	<anchor x="650" y="0" name="ogonek"/>
	<anchor x="350" y="700" name="top"/>
	<outline>
		<contour>
			<point x="400" y="300" type="line"/>
			<point x="300" y="300" type="line"/>
			<point x="300" y="400" type="line"/>
			<point x="400" y="400" type="line"/>
		</contour>
		<contour>
			<point x="100" y="400" type="line"/>
			<point x="100" y="0" type="line"/>
			<point x="300" y="0" type="line"/>
			<point x="300" y="200" type="line"/>
			<point x="400" y="200" type="line"/>
			<point x="400" y="0" type="line"/>
			<point x="600" y="0" type="line"/>
			<point x="600" y="400" type="line"/>
			<point x="500" y="400" type="line"/>
			<point x="500" y="500" type="line"/>
			<point x="200" y="500" type="line"/>
			<point x="200" y="400" type="line"/>
		</contour>
		<component base="acutecomb" yOffset="100"/>
	</outline>
</glyph>
<glyph name="Acircumflex" format="2">
	<advance width="700"/>
	<unicode hex="00C2"/>
	<outline>
		<contour>
			<point x="400" y="300" type="line"/>
			<point x="300" y="300" type="line"/>
			<point x="300" y="400" type="line"/>
			<point x="400" y="400" type="line"/>
		</contour>
		<contour>
			<point x="100" y="400" type="line"/>
			<point x="100" y="0" type="line"/>
			<point x="300" y="0" type="line"/>
			<point x="300" y="200" type="line"/>
			<point x="400" y="200" type="line"/>
			<point x="400" y="0" type="line"/>
			<point x="600" y="0" type="line"/>
			<point x="600" y="400" type="line"/>
			<point x="500" y="400" type="line"/>
			<point x="500" y="500" type="line"/>
			<point x="200" y="500" type="line"/>
			<point x="200" y="400" type="line"/>
		</contour>
		<component base="circumflexcomb" yOffset="100"/>
	</outline>
</glyph>
<glyph name="Egrave" format="2">
	<advance width="700"/>
	<unicode hex="00C8"/>
	<outline>
		<contour>
			<point x="300" y="200" type="line"/>
			<point x="500" y="200" type="line"/>
			<point x="500" y="300" type="line"/>
			<point x="300" y="300" type="line"/>
			<point x="300" y="400" type="line"/>
			<point x="600" y="400" type="line"/>
			<point x="600" y="500" type="line"/>
			<point x="100" y="500" type="line"/>
			<point x="100" y="0" type="line"/>
			<point x="600" y="0" type="line"/>
			<point x="600" y="100" type="line"/>
			<point x="300" y="100" type="line"/>
		</contour>
		<component base="gravecomb" yOffset="100"/>
	</outline>
</glyph>
<glyph name="Eacute" format="2">
	<advance width="700"/>
	<unicode hex="00C9"/>
	<anchor x="350" y="0" name="bottom"/>
	<anchor x="650" y="0" name="ogonek"/>
	<anchor x="350" y="700" name="top"/>
	<anchor x="0" y="700" name="topleft"/>
	<outline>
		<contour>
			<point x="300" y="200" type="line"/>
			<point x="500" y="200" type="line"/>
			<point x="500" y="300" type="line"/>
			<point x="300" y="300" type="line"/>
			<point x="300" y="400" type="line"/>
			<point x="600" y="400" type="line"/>
			<point x="600" y="500" type="line"/>
			<point x="100" y="500" type="line"/>
			<point x="100" y="0" type="line"/>
			<point x="600" y="0" type="line"/>
			<point x="600" y="100" type="line"/>
			<point x="300" y="100" type="line"/>
		</contour>
		<component base="acutecomb" yOffset="100"/>
	</outline>
</glyph>
<glyph name="Edieresis" format="2">
	<advance width="700"/>
	<unicode hex="00CB"/>
	<outline>
		<contour>
			<point x="300" y="200" type="line"/>
			<point x="500" y="200" type="line"/>
			<point x="500" y="300" type="line"/>
			<point x="300" y="300" type="line"/>
			<point x="300" y="400" type="line"/>
			<point x="600" y="400" type="line"/>
			<point x="600" y="500" type="line"/>
			<point x="100" y="500" type="line"/>
			<point x="100" y="0" type="line"/>
			<point x="600" y="0" type="line"/>
			<point x="600" y="100" type="line"/>
			<point x="300" y="100" type="line"/>
		</contour>
		<component base="dieresiscomb"/>
	</outline>
</glyph>
<glyph name="Iacute" format="2">
	<advance width="700"/>
	<unicode hex="00CD"/>
	<anchor x="250" y="0" name="bottom"/>
	<anchor x="450" y="0" name="ogonek"/>
	<anchor x="250" y="700" name="top"/>
	<anchor x="0" y="700" name="topleft"/>
	<outline>
		<contour>
			<point x="100" y="100" type="line"/>
			<point x="100" y="0" type="line"/>
			<point x="500" y="0" type="line"/>
			<point x="500" y="100" type="line"/>
			<point x="400" y="100" type="line"/>
			<point x="400" y="400" type="line"/>
			<point x="500" y="400" type="line"/>
			<point x="500" y="500" type="line"/>
			<point x="100" y="500" type="line"/>
			<point x="100" y="400" type="line"/>
			<point x="200" y="400" type="line"/>
			<point x="200" y="100" type="line"/>
		</contour>
		<component base="acutecomb" yOffset="100"/>
	</outline>
</glyph>
<glyph name="Icircumflex" format="2">
	<advance width="700"/>
	<unicode hex="00CE"/>
	<outline>
		<contour>
			<point x="100" y="100" type="line"/>
			<point x="100" y="0" type="line"/>
			<point x="500" y="0" type="line"/>
			<point x="500" y="100" type="line"/>
			<point x="400" y="100" type="line"/>
			<point x="400" y="400" type="line"/>
			<point x="500" y="400" type="line"/>
			<point x="500" y="500" type="line"/>
			<point x="100" y="500" type="line"/>
			<point x="100" y="400" type="line"/>
			<point x="200" y="400" type="line"/>
			<point x="200" y="100" type="line"/>
		</contour>
		<component base="circumflexcomb" xOffset="-100" yOffset="100"/>
	</outline>
</glyph>
<glyph name="Ntilde" format="2">
	<advance width="700"/>
	<unicode hex="00D1"/>
	<outline>
		<contour>
			<point x="200" y="500" type="line"/>
			<point x="100" y="500" type="line"/>
			<point x="100" y="0" type="line"/>
			<point x="300" y="0" type="line"/>
			<point x="300" y="200" type="line"/>
			<point x="400" y="200" type="line"/>
			<point x="400" y="100" type="line"/>
			<point x="500" y="100" type="line"/>
			<point x="500" y="0" type="line"/>
			<point x="600" y="0" type="line"/>
			<point x="600" y="500" type="line"/>
			<point x="400" y="500" type="line"/>
			<point x="400" y="300" type="line"/>
			<point x="300" y="300" type="line"/>
			<point x="300" y="400" type="line"/>
			<point x="200" y="400" type="line"/>
		</contour>
		<component base="tildecomb" yOffset="100"/>
	</outline>
</glyph>
<glyph name="Ograve" format="2">
	<advance width="700"/>
	<unicode hex="00D2"/>
	<outline>
		<contour>
			<point x="100" y="400" type="line"/>
			<point x="100" y="100" type="line"/>
			<point x="300" y="100" type="line"/>
			<point x="300" y="400" type="line"/>
		</contour>
		<contour>
			<point x="400" y="400" type="line"/>
			<point x="400" y="100" type="line"/>
			<point x="600" y="100" type="line"/>
			<point x="600" y="400" type="line"/>
		</contour>
		<contour>
			<point x="200" y="100" type="line"/>
			<point x="200" y="0" type="line"/>
			<point x="500" y="0" type="line"/>
			<point x="500" y="100" type="line"/>
		</contour>
		<contour>
			<point x="200" y="500" type="line"/>
			<point x="200" y="400" type="line"/>
			<point x="500" y="400" type="line"/>
			<point x="500" y="500" type="line"/>
		</contour>
		<component base="gravecomb" yOffset="100"/>
	</outline>
</glyph>
<glyph name="Oacute" format="2">
	<advance width="700"/>
	<unicode hex="00D3"/>
	<outline>
		<contour>
			<point x="100" y="400" type="line"/>
			<point x="100" y="100" type="line"/>
			<point x="300" y="100" type="line"/>
			<point x="300" y="400" type="line"/>
		</contour>
		<contour>
			<point x="400" y="400" type="line"/>
			<point x="400" y="100" type="line"/>
			<point x="600" y="100" type="line"/>
			<point x="600" y="400" type="line"/>
		</contour>
		<contour>
			<point x="200" y="100" type="line"/>
			<point x="200" y="0" type="line"/>
			<point x="500" y="0" type="line"/>
			<point x="500" y="100" type="line"/>
		</contour>
		<contour>
			<point x="200" y="500" type="line"/>
			<point x="200" y="400" type="line"/>
			<point x="500" y="400" type="line"/>
			<point x="500" y="500" type="line"/>
		</contour>
		<component base="acutecomb" yOffset="100"/>
	</outline>
</glyph>
<glyph name="Udieresis" format="2">
	<advance width="700"/>
	<unicode hex="00DC"/>
	<outline>
		<contour>
			<point x="100" y="500" type="line"/>
			<point x="100" y="100" type="line"/>
			<point x="300" y="100" type="line"/>
			<point x="300" y="500" type="line"/>
		</contour>
		<contour>
			<point x="400" y="500" type="line"/>
			<point x="400" y="100" type="line"/>
			<point x="600" y="100" type="line"/>
			<point x="600" y="500" type="line"/>
		</contour>
		<contour>
			<point x="200" y="100" type="line"/>
			<point x="200" y="0" type="line"/>
			<point x="500" y="0" type="line"/>
			<point x="500" y="100" type="line"/>
		</contour>
		<contour>
			<point x="200" y="800" type="line"/>
			<point x="200" y="700" type="line"/>
			<point x="250" y="700"/>
			<point x="250" y="700"/>
			<point x="300" y="700" type="curve"/>
			<point x="300" y="800" type="line"/>
		</contour>
		<contour>
			<point x="400" y="800" type="line"/>
			<point x="400" y="700" type="line"/>
			<point x="500" y="700" type="line"/>
			<point x="500" y="800" type="line"/>
		</contour>
		<contour>
			<point x="400" y="700" type="line"/>
			<point x="500" y="700" type="line"/>
		</contour>
		<contour>
			<point x="500" y="800" type="line"/>
			<point x="500" y="700" type="line"/>
			<point x="600" y="700" type="line"/>
			<point x="600" y="800" type="line"/>
		</contour>
		<contour>
			<point x="100" y="800" type="line"/>
			<point x="100" y="700" type="line"/>
			<point x="200" y="700" type="line"/>
			<point x="200" y="800" type="line"/>
		</contour>
	</outline>
</glyph>
<glyph name="egrave" format="2">
	<advance width="700"/>
	<unicode hex="00E8"/>
	<note>
		egrave
	</note>
	<outline>
		<contour>
			<point x="300" y="700" type="line"/>
			<point x="200" y="700" type="line"/>
			<point x="200" y="600" type="line"/>
			<point x="300" y="600" type="line"/>
		</contour>
		<contour>
			<point x="300" y="200" type="line"/>
			<point x="600" y="200" type="line"/>
			<point x="600" y="400" type="line"/>
			<point x="500" y="400" type="line"/>
			<point x="500" y="500" type="line"/>
			<point x="400" y="500" type="line"/>
			<point x="400" y="600" type="line"/>
			<point x="300" y="600" type="line"/>
			<point x="300" y="500" type="line"/>
			<point x="200" y="500" type="line"/>
			<point x="200" y="400" type="line"/>
			<point x="400" y="400" type="line"/>
			<point x="400" y="300" type="line"/>
			<point x="300" y="300" type="line"/>
			<point x="300" y="400" type="line"/>
			<point x="100" y="400" type="line"/>
			<point x="100" y="100" type="line"/>
			<point x="300" y="100" type="line"/>
		</contour>
		<contour>
			<point x="500" y="0" type="line"/>
			<point x="500" y="100" type="line"/>
			<point x="200" y="100" type="line"/>
			<point x="200" y="0" type="line"/>
		</contour>
		<contour>
			<point x="400" y="600" type="line"/>
			<point x="400" y="500" type="line"/>
			<point x="500" y="500" type="line"/>
			<point x="500" y="600" type="line"/>
		</contour>
		<contour>
			<point x="300" y="700" type="line"/>
			<point x="300" y="600" type="line"/>
			<point x="400" y="600" type="line"/>
			<point x="400" y="700" type="line"/>
		</contour>
	</outline>
</glyph>
<glyph name="ecircumflex" format="2">
	<advance width="700"/>
	<unicode hex="00EA"/>
	<note>
		ecircumflex
	</note>
	<outline>
		<contour>
			<point x="300" y="600" type="line"/>
			<point x="400" y="600" type="line"/>
			<point x="400" y="700" type="line"/>
			<point x="300" y="700" type="line"/>
		</contour>
		<contour>
			<point x="300" y="200" type="line"/>
			<point x="600" y="200" type="line"/>
			<point x="600" y="400" type="line"/>
			<point x="500" y="400" type="line"/>
			<point x="500" y="500" type="line"/>
			<point x="600" y="500" type="line"/>
			<point x="600" y="600" type="line"/>
			<point x="400" y="600" type="line"/>
			<point x="400" y="500" type="line"/>
			<point x="300" y="500" type="line"/>
			<point x="300" y="600" type="line"/>
			<point x="100" y="600" type="line"/>
			<point x="100" y="500" type="line"/>
			<point x="200" y="500" type="line"/>
			<point x="200" y="400" type="line"/>
			<point x="400" y="400" type="line"/>
			<point x="400" y="300" type="line"/>
			<point x="300" y="300" type="line"/>
			<point x="300" y="400" type="line"/>
			<point x="100" y="400" type="line"/>
			<point x="100" y="100" type="line"/>
			<point x="300" y="100" type="line"/>
		</contour>
		<contour>
			<point x="500" y="0" type="line"/>
			<point x="500" y="100" type="line"/>
			<point x="200" y="100" type="line"/>
			<point x="200" y="0" type="line"/>
		</contour>
		<contour>
			<point x="200" y="700" type="line"/>
			<point x="200" y="600" type="line"/>
			<point x="300" y="600" type="line"/>
			<point x="300" y="700" type="line"/>
		</contour>
		<contour>
			<point x="400" y="700" type="line"/>
			<point x="400" y="600" type="line"/>
			<point x="500" y="600" type="line"/>
			<point x="500" y="700" type="line"/>
		</contour>
	</outline>
</glyph>
<glyph name="idieresis" format="2">
	<advance width="700"/>
	<unicode hex="00EF"/>
	<anchor x="350" y="0" name="bottom"/>
	<anchor x="650" y="0" name="ogonek"/>
	<anchor x="350" y="500" name="top"/>
	<outline>
		<contour>
			<point x="200" y="100" type="line"/>
			<point x="200" y="0" type="line"/>
			<point x="600" y="0" type="line"/>
			<point x="600" y="100" type="line"/>
			<point x="500" y="100" type="line"/>
			<point x="500" y="500" type="line"/>
			<point x="300" y="500" type="line"/>
			<point x="300" y="100" type="line"/>
		</contour>
		<component base="dieresiscomb"/>
	</outline>
</glyph>
<glyph name="ucircumflex" format="2">
	<advance width="700"/>
	<unicode hex="00FB"/>
	<outline>
		<contour>
			<point x="600" y="600" type="line"/>
			<point x="600" y="500" type="line"/>
			<point x="700" y="500" type="line"/>
			<point x="700" y="600" type="line"/>
		</contour>
		<contour>
			<point x="0" y="600" type="line"/>
			<point x="0" y="500" type="line"/>
			<point x="100" y="500" type="line"/>
			<point x="100" y="600" type="line"/>
		</contour>
		<component base="u"/>
		<component base="circumflexcomb"/>
	</outline>
</glyph>
<glyph name="Ycircumflex" format="2">
	<advance width="700"/>
	<unicode hex="0176"/>
	<anchor x="350" y="0" name="bottom"/>
	<anchor x="350" y="400" name="top"/>
	<anchor x="0" y="400" name="topleft"/>
	<outline>
		<contour>
			<point x="100" y="500" type="line"/>
			<point x="100" y="300" type="line"/>
			<point x="300" y="300" type="line"/>
			<point x="300" y="500" type="line"/>
		</contour>
		<contour>
			<point x="200" y="300" type="line"/>
			<point x="200" y="200" type="line"/>
			<point x="400" y="200" type="line"/>
			<point x="400" y="300" type="line"/>
		</contour>
		<contour>
			<point x="300" y="200" type="line"/>
			<point x="300" y="0" type="line"/>
			<point x="500" y="0" type="line"/>
			<point x="500" y="200" type="line"/>
		</contour>
		<contour>
			<point x="500" y="300" type="line"/>
			<point x="500" y="200" type="line"/>
			<point x="600" y="200" type="line"/>
			<point x="600" y="300" type="line"/>
		</contour>
		<contour>
			<point x="600" y="500" type="line"/>
			<point x="600" y="300" type="line"/>
			<point x="700" y="300" type="line"/>
			<point x="700" y="500" type="line"/>
		</contour>
		<contour>
			<point x="300" y="800" type="line"/>
			<point x="300" y="700" type="line"/>
			<point x="600" y="700" type="line"/>
			<point x="600" y="800" type="line"/>
		</contour>
		<contour>
			<point x="500" y="700" type="line"/>
			<point x="500" y="600" type="line"/>
			<point x="700" y="600" type="line"/>
			<point x="700" y="700" type="line"/>
		</contour>
		<contour>
			<point x="200" y="700" type="line"/>
			<point x="200" y="600" type="line"/>
			<point x="400" y="600" type="line"/>
			<point x="400" y="700" type="line"/>
		</contour>
	</outline>
</glyph>
<glyph name="ycircumflex" format="2">
	<advance width="700"/>
	<unicode hex="0177"/>
	<outline>
		<contour>
			<point x="600" y="600" type="line"/>
			<point x="600" y="500" type="line"/>
			<point x="700" y="500" type="line"/>
			<point x="700" y="600" type="line"/>
		</contour>
		<contour>
			<point x="0" y="600" type="line"/>
			<point x="0" y="500" type="line"/>
			<point x="100" y="500" type="line"/>
			<point x="100" y="600" type="line"/>
		</contour>
		<component base="y"/>
		<component base="circumflexcomb"/>
	</outline>
</glyph>
<glyph name="dieresiscomb" format="2">
	<advance width="700"/>
	<unicode hex="0308"/>
	<outline>
		<contour>
			<point x="200" y="700" type="line"/>
			<point x="200" y="600" type="line"/>
			<point x="228" y="600"/>
			<point x="228" y="600"/>
			<point x="300" y="600" type="curve"/>
			<point x="300" y="700" type="line"/>
		</contour>
		<contour>
			<point x="400" y="700" type="line"/>
			<point x="400" y="600" type="line"/>
			<point x="500" y="600" type="line"/>
			<point x="500" y="700" type="line"/>
		</contour>
		<contour>
			<point x="400" y="600" type="line"/>
			<point x="500" y="600" type="line"/>
		</contour>
		<contour>
			<point x="500" y="700" type="line"/>
			<point x="500" y="600" type="line"/>
			<point x="600" y="600" type="line"/>
			<point x="600" y="700" type="line"/>
		</contour>
		<contour>
			<point x="100" y="700" type="line"/>
			<point x="100" y="600" type="line"/>
			<point x="200" y="600" type="line"/>
			<point x="200" y="700" type="line"/>
		</contour>
	</outline>
</glyph>
<glyph name="ringcomb" format="2">
	<advance width="700"/>
	<unicode hex="030A"/>
	<anchor x="350" y="500" name="_top"/>
	<anchor x="350" y="700" name="top"/>
	<outline>
		<contour>
			<point x="300" y="600" type="line"/>
			<point x="400" y="600" type="line"/>
			<point x="400" y="700" type="line"/>
			<point x="300" y="700" type="line"/>
		</contour>
		<contour>
			<point x="300" y="600" type="line"/>
			<point x="200" y="600" type="line"/>
			<point x="200" y="500" type="line"/>
			<point x="300" y="500" type="line"/>
		</contour>
		<contour>
			<point x="400" y="500" type="line"/>
			<point x="500" y="500" type="line"/>
			<point x="500" y="600" type="line"/>
			<point x="400" y="600" type="line"/>
		</contour>
		<contour>
			<point x="300" y="500" type="line"/>
			<point x="300" y="400" type="line"/>
			<point x="400" y="400" type="line"/>
			<point x="400" y="500" type="line"/>
		</contour>
		<contour>
			<point x="200" y="600" type="line"/>
			<point x="200" y="500" type="line"/>
		</contour>
		<contour>
			<point x="400" y="700" type="line"/>
			<point x="400" y="600" type="line"/>
			<point x="500" y="600" type="line"/>
			<point x="500" y="700" type="line"/>
		</contour>
		<contour>
			<point x="200" y="700" type="line"/>
			<point x="200" y="600" type="line"/>
			<point x="300" y="600" type="line"/>
			<point x="300" y="700" type="line"/>
		</contour>
		<contour>
			<point x="400" y="500" type="line"/>
			<point x="400" y="400" type="line"/>
			<point x="500" y="400" type="line"/>
			<point x="500" y="500" type="line"/>
		</contour>
		<contour>
			<point x="200" y="500" type="line"/>
			<point x="200" y="400" type="line"/>
			<point x="300" y="400" type="line"/>
			<point x="300" y="500" type="line"/>
		</contour>
	</outline>
</glyph>
<glyph name="mu" format="2">
	<advance width="700"/>
	<unicode hex="03BC"/>
	<outline>
		<contour>
			<point x="300" y="500" type="line"/>
			<point x="100" y="500" type="line"/>
			<point x="100" y="-200" type="line"/>
			<point x="300" y="-200" type="line"/>
			<point x="300" y="0" type="line"/>
			<point x="500" y="0" type="line"/>
			<point x="500" y="-100" type="line"/>
			<point x="700" y="-100" type="line"/>
			<point x="700" y="0" type="line"/>
			<point x="600" y="0" type="line"/>
			<point x="600" y="500" type="line"/>
			<point x="400" y="500" type="line"/>
			<point x="400" y="200" type="line"/>
			<point x="300" y="200" type="line"/>
		</contour>
	</outline>
</glyph>
<glyph name="emdash" format="2">
	<advance width="700"/>
	<unicode hex="2014"/>
	<outline>
		<contour>
			<point x="700" y="200" type="line"/>
			<point x="700" y="300" type="line"/>
			<point x="0" y="300" type="line"/>
			<point x="0" y="200" type="line"/>
		</contour>
		<contour>
			<point x="700" y="300" type="line"/>
			<point x="700" y="400" type="line"/>
			<point x="0" y="400" type="line"/>
			<point x="0" y="300" type="line"/>
		</contour>
	</outline>
</glyph>
<glyph name="quotesinglbase" format="2">
	<advance width="600"/>
	<unicode hex="201A"/>
	<outline>
		<contour>
			<point x="200" y="-100" type="line"/>
			<point x="300" y="-100" type="line"/>
			<point x="300" y="100" type="line"/>
			<point x="200" y="100" type="line"/>
		</contour>
		<contour>
			<point x="100" y="-200" type="line"/>
			<point x="200" y="-200" type="line"/>
			<point x="200" y="-100" type="line"/>
			<point x="100" y="-100" type="line"/>
		</contour>
		<contour>
			<point x="300" y="-100" type="line"/>
			<point x="400" y="-100" type="line"/>
			<point x="400" y="100" type="line"/>
			<point x="300" y="100" type="line"/>
		</contour>
		<contour>
			<point x="200" y="-200" type="line"/>
			<point x="300" y="-200" type="line"/>
			<point x="300" y="-100" type="line"/>
			<point x="200" y="-100" type="line"/>
		</contour>
	</outline>
</glyph>
<glyph name="quotedblleft" format="2">
	<advance width="700"/>
	<unicode hex="201C"/>
	<outline>
		<contour>
			<point x="300" y="700" type="line"/>
			<point x="100" y="700" type="line"/>
			<point x="100" y="500" type="line"/>
			<point x="200" y="500" type="line"/>
			<point x="200" y="400" type="line"/>
			<point x="400" y="400" type="line"/>
			<point x="400" y="500" type="line"/>
			<point x="300" y="500" type="line"/>
		</contour>
		<contour>
			<point x="400" y="500" type="line"/>
			<point x="500" y="500" type="line"/>
			<point x="500" y="400" type="line"/>
			<point x="700" y="400" type="line"/>
			<point x="700" y="500" type="line"/>
			<point x="600" y="500" type="line"/>
			<point x="600" y="700" type="line"/>
			<point x="400" y="700" type="line"/>
		</contour>
	</outline>
</glyph>
<glyph name="Adieresis.ss01" format="2">
	<advance width="700"/>
	<outline>
		<contour>
			<point x="400" y="300" type="line"/>
			<point x="300" y="300" type="line"/>
			<point x="300" y="600" type="line"/>
			<point x="400" y="600" type="line"/>
		</contour>
		<contour>
			<point x="100" y="600" type="line"/>
			<point x="100" y="0" type="line"/>
			<point x="300" y="0" type="line"/>
			<point x="300" y="200" type="line"/>
			<point x="400" y="200" type="line"/>
			<point x="400" y="0" type="line"/>
			<point x="600" y="0" type="line"/>
			<point x="600" y="600" type="line"/>
			<point x="500" y="600" type="line"/>
			<point x="500" y="700" type="line"/>
			<point x="200" y="700" type="line"/>
			<point x="200" y="600" type="line"/>
		</contour>
		<contour>
			<point x="200" y="900" type="line"/>
			<point x="200" y="800" type="line"/>
			<point x="228" y="800"/>
			<point x="228" y="800"/>
			<point x="300" y="800" type="curve"/>
			<point x="300" y="900" type="line"/>
		</contour>
		<contour>
			<point x="400" y="900" type="line"/>
			<point x="400" y="800" type="line"/>
			<point x="500" y="800" type="line"/>
			<point x="500" y="900" type="line"/>
		</contour>
		<contour>
			<point x="400" y="800" type="line"/>
			<point x="500" y="800" type="line"/>
		</contour>
		<contour>
			<point x="500" y="900" type="line"/>
			<point x="500" y="800" type="line"/>
			<point x="600" y="800" type="line"/>
			<point x="600" y="900" type="line"/>
		</contour>
		<contour>
			<point x="100" y="900" type="line"/>
			<point x="100" y="800" type="line"/>
			<point x="200" y="800" type="line"/>
			<point x="200" y="900" type="line"/>
		</contour>
	</outline>
</glyph>
<glyph name="Edieresis.ss01" format="2">
	<advance width="700"/>
	<outline>
		<contour>
			<point x="300" y="300" type="line"/>
			<point x="500" y="300" type="line"/>
			<point x="500" y="400" type="line"/>
			<point x="300" y="400" type="line"/>
			<point x="300" y="600" type="line"/>
			<point x="600" y="600" type="line"/>
			<point x="600" y="700" type="line"/>
			<point x="100" y="700" type="line"/>
			<point x="100" y="0" type="line"/>
			<point x="600" y="0" type="line"/>
			<point x="600" y="100" type="line"/>
			<point x="300" y="100" type="line"/>
		</contour>
		<contour>
			<point x="200" y="900" type="line"/>
			<point x="200" y="800" type="line"/>
			<point x="228" y="800"/>
			<point x="228" y="800"/>
			<point x="300" y="800" type="curve"/>
			<point x="300" y="900" type="line"/>
		</contour>
		<contour>
			<point x="400" y="900" type="line"/>
			<point x="400" y="800" type="line"/>
			<point x="500" y="800" type="line"/>
			<point x="500" y="900" type="line"/>
		</contour>
		<contour>
			<point x="400" y="800" type="line"/>
			<point x="500" y="800" type="line"/>
		</contour>
		<contour>
			<point x="500" y="900" type="line"/>
			<point x="500" y="800" type="line"/>
			<point x="600" y="800" type="line"/>
			<point x="600" y="900" type="line"/>
		</contour>
		<contour>
			<point x="100" y="900" type="line"/>
			<point x="100" y="800" type="line"/>
			<point x="200" y="800" type="line"/>
			<point x="200" y="900" type="line"/>
		</contour>
	</outline>
</glyph>
<glyph name="Idotless" format="2">
	<advance width="700"/>
	<outline>
		<contour>
			<point x="100" y="100" type="line"/>
			<point x="100" y="0" type="line"/>
			<point x="500" y="0" type="line"/>
			<point x="500" y="100" type="line"/>
			<point x="400" y="100" type="line"/>
			<point x="400" y="600" type="line"/>
			<point x="500" y="600" type="line"/>
			<point x="500" y="700" type="line"/>
			<point x="100" y="700" type="line"/>
			<point x="100" y="600" type="line"/>
			<point x="200" y="600" type="line"/>
			<point x="200" y="100" type="line"/>
		</contour>
	</outline>
</glyph>
<glyph name="VTF" format="2">
	<advance width="1400"/>
	<outline>
		<contour>
			<point x="300" y="200" type="line"/>
			<point x="500" y="200" type="line"/>
			<point x="500" y="600" type="line"/>
			<point x="300" y="600" type="line"/>
		</contour>
		<contour>
			<point x="1100" y="600" type="line"/>
			<point x="900" y="600" type="line"/>
			<point x="900" y="200" type="line"/>
			<point x="1100" y="200" type="line"/>
		</contour>
		<contour>
			<point x="600" y="100" type="line"/>
			<point x="600" y="200" type="line"/>
			<point x="400" y="200" type="line"/>
			<point x="400" y="100" type="line"/>
		</contour>
		<contour>
			<point x="1000" y="200" type="line"/>
			<point x="800" y="200" type="line"/>
			<point x="800" y="100" type="line"/>
			<point x="1000" y="100" type="line"/>
		</contour>
		<contour>
			<point x="800" y="200" type="line"/>
			<point x="600" y="200" type="line"/>
			<point x="600" y="0" type="line"/>
			<point x="800" y="0" type="line"/>
		</contour>
		<contour>
			<point x="300" y="700" type="line"/>
			<point x="600" y="700" type="line"/>
			<point x="600" y="300" type="line"/>
			<point x="800" y="300" type="line"/>
			<point x="800" y="700" type="line"/>
			<point x="1100" y="700" type="line"/>
			<point x="1100" y="800" type="line"/>
			<point x="300" y="800" type="line"/>
		</contour>
		<contour>
			<point x="900" y="600" type="line"/>
			<point x="900" y="500" type="line"/>
			<point x="1300" y="500" type="line"/>
			<point x="1300" y="600" type="line"/>
		</contour>
		<contour>
			<point x="100" y="600" type="line"/>
			<point x="100" y="500" type="line"/>
			<point x="500" y="500" type="line"/>
			<point x="500" y="600" type="line"/>
		</contour>
		<contour>
			<point x="1100" y="400" type="line"/>
			<point x="1100" y="300" type="line"/>
			<point x="1200" y="300" type="line"/>
			<point x="1200" y="400" type="line"/>
		</contour>
		<contour>
			<point x="200" y="400" type="line"/>
			<point x="200" y="300" type="line"/>
			<point x="300" y="300" type="line"/>
			<point x="300" y="400" type="line"/>
		</contour>
	</outline>
</glyph>
